<?xml version="1.0" encoding="UTF-8"?>
<svg width="1200pt" height="1200pt" version="1.1" viewBox="0 0 1200 1200" xmlns="http://www.w3.org/2000/svg">
 <g>
  <path d="m480.75 69.898c-50.25 3.8984-102.9 13.352-125.4 22.5-23.398 9.6016-46.648 26.398-74.25 53.852-21.602 21.449-30.75 32.852-33.602 42-1.1992 3.3008-2.5508 12.75-3 21-0.89844 13.801-1.6484 16.352-8.5508 31.5-4.1992 9-12.148 29.25-17.852 45l-10.199 28.5v17.25c-0.14844 14.398 0.44922 19.051 3.6016 28.5 6.75 20.852 4.0508 57-4.8008 61.648-4.8008 2.5508-16.199 0.75-27.602-4.3516l-10.352-4.8008 8.1016 7.5c4.3516 4.0508 11.551 9.1484 15.898 11.551l7.9492 4.0508-2.25 4.6484c-5.6992 10.949-28.949 38.102-58.949 69-9.75 9.8984-18.75 20.25-20.25 23.102-3.3008 6.6016-2.3984 19.648 1.6484 25.199 2.1016 2.6992 13.199 8.5508 36.602 19.199l33.75 15.449-0.30078 8.6992c-0.30078 9.8984-4.9492 25.949-9.4492 33.301-1.6484 2.6992-5.1016 6.1484-7.5 7.5-3.75 2.1016-4.5 3.4492-4.5 8.25 0 8.1016 3.3008 14.852 9.75 20.102 6.6016 5.5508 15.148 7.9492 28.051 7.9492h9.4492l-6.75 4.0508c-11.852 6.8984-16.199 10.949-19.5 17.699-3.8984 8.25-2.8516 13.199 3.8984 17.398 7.5 4.6484 15.148 14.25 18.148 22.949 3.8984 11.102 3.4492 32.398-0.89844 49.352-3.3008 12.75-3.3008 13.5-0.89844 19.5 6.1484 15.602 20.551 25.801 42.75 30.449 15.301 3.3008 40.801 2.1016 53.25-2.3984 27.898-9.8984 65.551-16.199 105.9-17.551l27.898-0.89844 15 20.102c52.801 70.5 83.852 135.15 98.852 206.1 3.8984 17.852 4.1992 22.352 4.1992 52.801 0.14844 21.75 0.60156 32.852 1.6484 32.25 1.1992-0.75 291.6-218.85 292.95-220.05 0.14844-0.14844-7.8008-8.25-17.852-18.148-88.051-86.398-132.15-159.9-129.15-215.25 0.30078-4.5 1.1992-5.8516 6-8.3984 10.648-6.1484 30.301-21.602 45.75-36.449 17.398-16.648 20.102-17.699 28.051-10.949 4.3516 3.6016 4.8008 4.6484 4.0508 10.051-0.44922 3.4492-3.6016 11.852-6.8984 18.898-3.3008 7.0508-7.8008 19.648-10.051 27.75-5.25 19.648-6 52.199-1.5 69 4.0508 15.301 10.051 29.102 18.301 42.301 10.199 16.5 38.852 45 58.5 57.898 13.648 9.1484 42.898 25.051 45.75 25.051 0.60156 0-4.8008-5.8516-12-13.051-20.102-20.398-33.898-43.5-35.852-60.301l-0.75-6.75 6.6016 5.3984c18.602 15 52.648 34.352 74.551 42.301 25.648 9.1484 33.602 10.5 62.551 10.648 31.352 0 42.75-2.25 66-13.352 15.449-7.5 31.352-18.301 24.301-16.801-16.801 3.75-26.551 2.1016-35.699-6.1484-7.0508-6.4492-12.148-15.602-15.75-29.102-2.1016-7.8008-2.6992-16.5-3-46.352-0.14844-31.051-0.75-39.148-3.4492-52.051-9.3008-44.398-32.25-82.352-64.949-107.1-25.648-19.352-42.898-23.25-69-15.602-16.051 4.8008-33.602 6.3008-42.75 3.8984-8.1016-2.25-14.699-8.5508-16.949-16.352-1.9492-6.1484-1.8008-6.3008 8.5508-26.852 24.449-47.699 35.25-90.898 35.102-140.7 0-49.352-10.352-92.699-33.301-139.65-9.6016-19.801-27.148-47.102-42.301-65.852-13.648-16.949-42.898-44.551-59.699-56.551-34.5-24.75-78.301-40.199-136.5-48.602-16.5-2.25-99.602-4.1992-119.1-2.6992zm135.45 78.602c30 2.6992 51.602 8.5508 77.699 20.852 103.5 49.199 153 168.75 114.6 276.9-11.398 31.801-27.449 57-53.102 82.648-31.801 31.648-65.852 50.551-110.25 60.75-9.1484 2.25-20.699 3.3008-39.898 3.8984-41.551 1.1992-67.949-4.1992-103.8-21.301-44.852-21.301-81-57-103.5-101.7-14.852-29.852-21.301-56.25-22.5-92.551-0.60156-22.352-0.30078-28.949 2.25-44.25 8.3984-48.75 31.051-90.898 67.051-125.1 40.648-38.398 90.602-58.949 150-61.5 2.5508 0 12.148 0.60156 21.449 1.3516z"/>
  <path d="m609.3 302.55c-15.449 43.051-51.148 146.55-50.852 147 1.1992 1.1992 22.801 3.3008 23.551 2.3984 0.60156-0.75 13.051-36 27.75-78.449s27-78 27.301-78.898c0.75-1.9492-2.6992-3-14.699-4.3516l-8.3984-1.0508-4.6484 13.352z"/>
  <path d="m468 322.35-54.75 29.551v40.051l54 28.199c29.699 15.602 54.449 28.199 55.199 28.352 0.60156 0 1.0508-9 1.0508-20.102v-19.949l-33.301-17.551c-18.449-9.75-33.898-18.148-34.5-18.75-0.60156-0.60156 14.398-9.4492 33.301-19.648l34.5-18.75v-20.699c0-11.25-0.14844-20.551-0.30078-20.398-0.30078 0-25.051 13.352-55.199 29.699z"/>
  <path d="m663 313.2v20.551l34.5 18.75c18.898 10.199 33.898 19.051 33.301 19.648-0.60156 0.60156-16.051 9-34.352 18.75l-33.449 17.551v20.102c0 10.949 0.44922 19.949 1.1992 19.949 0.60156 0 26.102-12.75 56.551-28.352l55.5-28.352v-39.898l-36.75-19.199c-20.25-10.648-45.75-24-56.551-29.699l-19.949-10.352z"/>
 </g>
</svg>
